<svg xmlns="http://www.w3.org/2000/svg" width="963.0416870117188" height="466.4050598144531" viewBox="63.57219696044922 -664.0946655273438 963.0416870117188 466.4050598144531"><title>Neo4j Graph Visualization</title><desc>Created using Neo4j (http://www.neo4j.com/)</desc><g class="layer relationships"><g class="relationship" transform="translate(706.6370166245407 -339.78540431026425) rotate(253.88718741526463)"><path class="outline" fill="#A5ABB6" stroke="none" d="M 25 0.5 L 49.673256925311605 0.5 L 49.673256925311605 -0.5 L 25 -0.5 Z M 91.6732569253116 0.5 L 116.34651385062321 0.5 L 116.34651385062321 3.5 L 123.34651385062321 0 L 116.34651385062321 -3.5 L 116.34651385062321 -0.5 L 91.6732569253116 -0.5 Z"/><text text-anchor="middle" pointer-events="none" font-size="8px" fill="#000000" x="70.6732569253116" y="3" transform="rotate(180 70.6732569253116 0)" font-family="sans-serif">CHILD_IN</text></g><g class="relationship" transform="translate(621.2736351740792 -341.23419846637773) rotate(290.89575059838796)"><path class="outline" fill="#A5ABB6" stroke="none" d="M 25 0.5 L 50.78810255453111 0.5 L 50.78810255453111 -0.5 L 25 -0.5 Z M 92.78810255453111 0.5 L 118.57620510906222 0.5 L 118.57620510906222 3.5 L 125.57620510906222 0 L 118.57620510906222 -3.5 L 118.57620510906222 -0.5 L 92.78810255453111 -0.5 Z"/><text text-anchor="middle" pointer-events="none" font-size="8px" fill="#000000" x="71.78810255453111" y="3" font-family="sans-serif">CHILD_IN</text></g><g class="relationship" transform="translate(691.7439052128905 -442.3129967041692) rotate(229.1566154367817)"><path class="outline" fill="#A5ABB6" stroke="none" d="M 25 0.5 L 20.9072595173748 0.5 L 20.9072595173748 -0.5 L 25 -0.5 Z M 20.9072595173748 0.5 L 16.8145190347496 0.5 L 16.8145190347496 3.5 L 23.8145190347496 0 L 16.8145190347496 -3.5 L 16.8145190347496 -0.5 L 20.9072595173748 -0.5 Z"/><text text-anchor="middle" pointer-events="none" font-size="8px" fill="#000000" x="20.9072595173748" y="3" transform="rotate(180 20.9072595173748 0)" font-family="sans-serif"/></g><g class="relationship" transform="translate(639.6736186536185 -446.3557130325593) rotate(324.2841873046482)"><path class="outline" fill="#A5ABB6" stroke="none" d="M 25 0.5 L 22.447455821426672 0.5 L 22.447455821426672 -0.5 L 25 -0.5 Z M 22.447455821426672 0.5 L 19.894911642853344 0.5 L 19.894911642853344 3.5 L 26.894911642853344 0 L 19.894911642853344 -3.5 L 19.894911642853344 -0.5 L 22.447455821426672 -0.5 Z"/><text text-anchor="middle" pointer-events="none" font-size="8px" fill="#000000" x="22.447455821426672" y="3" font-family="sans-serif"/></g><g class="relationship" transform="translate(302.5982682508222 -239.20534294887352) rotate(288.2626770319251)"><path class="outline" fill="#A5ABB6" stroke="none" d="M 25 0.5 L 55.43580511212308 0.5 L 55.43580511212308 -0.5 L 25 -0.5 Z M 97.43580511212308 0.5 L 127.87161022424615 0.5 L 127.87161022424615 3.5 L 134.87161022424615 0 L 127.87161022424615 -3.5 L 127.87161022424615 -0.5 L 97.43580511212308 -0.5 Z"/><text text-anchor="middle" pointer-events="none" font-size="8px" fill="#000000" x="76.43580511212308" y="3" font-family="sans-serif">CHILD_IN</text></g><g class="relationship" transform="translate(378.71293520632753 -240.962000234243) rotate(257.2567164330139)"><path class="outline" fill="#A5ABB6" stroke="none" d="M 25 0.5 L 52.623832847255755 0.5 L 52.623832847255755 -0.5 L 25 -0.5 Z M 94.62383284725576 0.5 L 122.24766569451151 0.5 L 122.24766569451151 3.5 L 129.2476656945115 0 L 122.24766569451151 -3.5 L 122.24766569451151 -0.5 L 94.62383284725576 -0.5 Z"/><text text-anchor="middle" pointer-events="none" font-size="8px" fill="#000000" x="73.62383284725576" y="3" transform="rotate(180 73.62383284725576 0)" font-family="sans-serif">CHILD_IN</text></g><g class="relationship" transform="translate(320.28156569062145 -346.60554419566364) rotate(312.56818106150337)"><path class="outline" fill="#A5ABB6" stroke="none" d="M 25 0.5 L 24.48561464712899 0.5 L 24.48561464712899 -0.5 L 25 -0.5 Z M 24.48561464712899 0.5 L 23.97122929425798 0.5 L 23.97122929425798 3.5 L 30.97122929425798 0 L 23.97122929425798 -3.5 L 23.97122929425798 -0.5 L 24.48561464712899 -0.5 Z"/><text text-anchor="middle" pointer-events="none" font-size="8px" fill="#000000" x="24.48561464712899" y="3" font-family="sans-serif"/></g><g class="relationship" transform="translate(368.24350519856523 -345.3705406098735) rotate(237.19432672756363)"><path class="outline" fill="#A5ABB6" stroke="none" d="M 25 0.5 L 22.684543852168588 0.5 L 22.684543852168588 -0.5 L 25 -0.5 Z M 22.684543852168588 0.5 L 20.369087704337176 0.5 L 20.369087704337176 3.5 L 27.369087704337176 0 L 20.369087704337176 -3.5 L 20.369087704337176 -0.5 L 22.684543852168588 -0.5 Z"/><text text-anchor="middle" pointer-events="none" font-size="8px" fill="#000000" x="22.684543852168588" y="3" transform="rotate(180 22.684543852168588 0)" font-family="sans-serif"/></g><g class="relationship" transform="translate(990.0450418547191 -343.6383726479447) rotate(217.42641363571124)"><path class="outline" fill="#A5ABB6" stroke="none" d="M 25 0.5 L 17.90777280890478 0.5 L 17.90777280890478 -0.5 L 25 -0.5 Z M 17.90777280890478 0.5 L 10.815545617809565 0.5 L 10.815545617809565 3.5 L 17.815545617809565 0 L 10.815545617809565 -3.5 L 10.815545617809565 -0.5 L 17.90777280890478 -0.5 Z"/><text text-anchor="middle" pointer-events="none" font-size="8px" fill="#000000" x="17.90777280890478" y="3" transform="rotate(180 17.90777280890478 0)" font-family="sans-serif"/></g><g class="relationship" transform="translate(515.1892562154508 -348.0557828470038) rotate(223.11859891097492)"><path class="outline" fill="#A5ABB6" stroke="none" d="M 25 0.5 L 19.5890181291093 0.5 L 19.5890181291093 -0.5 L 25 -0.5 Z M 19.5890181291093 0.5 L 14.178036258218597 0.5 L 14.178036258218597 3.5 L 21.178036258218597 0 L 14.178036258218597 -3.5 L 14.178036258218597 -0.5 L 19.5890181291093 -0.5 Z"/><text text-anchor="middle" pointer-events="none" font-size="8px" fill="#000000" x="19.5890181291093" y="3" transform="rotate(180 19.5890181291093 0)" font-family="sans-serif"/></g><g class="relationship" transform="translate(292.10300450305834 -552.1299473374969) rotate(223.73809183066044)"><path class="outline" fill="#A5ABB6" stroke="none" d="M 25 0.5 L 23.743671660866003 0.5 L 23.743671660866003 -0.5 L 25 -0.5 Z M 23.743671660866003 0.5 L 22.487343321732006 0.5 L 22.487343321732006 3.5 L 29.487343321732006 0 L 22.487343321732006 -3.5 L 22.487343321732006 -0.5 L 23.743671660866003 -0.5 Z"/><text text-anchor="middle" pointer-events="none" font-size="8px" fill="#000000" x="23.743671660866003" y="3" transform="rotate(180 23.743671660866003 0)" font-family="sans-serif"/></g><g class="relationship" transform="translate(813.1754433687635 -433.3654117258869) rotate(314.25771742580304)"><path class="outline" fill="#A5ABB6" stroke="none" d="M 25 0.5 L 20.004300107213563 0.5 L 20.004300107213563 -0.5 L 25 -0.5 Z M 20.004300107213563 0.5 L 15.008600214427126 0.5 L 15.008600214427126 3.5 L 22.008600214427126 0 L 15.008600214427126 -3.5 L 15.008600214427126 -0.5 L 20.004300107213563 -0.5 Z"/><text text-anchor="middle" pointer-events="none" font-size="8px" fill="#000000" x="20.004300107213563" y="3" font-family="sans-serif"/></g><g class="relationship" transform="translate(461.59720457018545 -344.1682669298166) rotate(238.86859505085408)"><path class="outline" fill="#A5ABB6" stroke="none" d="M 25 0.5 L 65.71727413945628 0.5 L 65.71727413945628 -0.5 L 25 -0.5 Z M 107.71727413945628 0.5 L 148.43454827891256 0.5 L 148.43454827891256 3.5 L 155.43454827891256 0 L 148.43454827891256 -3.5 L 148.43454827891256 -0.5 L 107.71727413945628 -0.5 Z"/><text text-anchor="middle" pointer-events="none" font-size="8px" fill="#000000" x="86.71727413945628" y="3" transform="rotate(180 86.71727413945628 0)" font-family="sans-serif">CHILD_IN</text></g><g class="relationship" transform="translate(368.24350519856523 -345.3705406098735) rotate(273.1892760210628)"><path class="outline" fill="#A5ABB6" stroke="none" d="M 25 0.5 L 53.31241283972962 0.5 L 53.31241283972962 -0.5 L 25 -0.5 Z M 95.31241283972962 0.5 L 123.62482567945924 0.5 L 123.62482567945924 3.5 L 130.62482567945924 0 L 123.62482567945924 -3.5 L 123.62482567945924 -0.5 L 95.31241283972962 -0.5 Z"/><text text-anchor="middle" pointer-events="none" font-size="8px" fill="#000000" x="74.31241283972962" y="3" font-family="sans-serif">CHILD_IN</text></g><g class="relationship" transform="translate(354.487077500101 -458.0097488011527) rotate(307.8529235636431)"><path class="outline" fill="#A5ABB6" stroke="none" d="M 25 0.5 L 21.58372598287458 0.5 L 21.58372598287458 -0.5 L 25 -0.5 Z M 21.58372598287458 0.5 L 18.16745196574916 0.5 L 18.16745196574916 3.5 L 25.16745196574916 0 L 18.16745196574916 -3.5 L 18.16745196574916 -0.5 L 21.58372598287458 -0.5 Z"/><text text-anchor="middle" pointer-events="none" font-size="8px" fill="#000000" x="21.58372598287458" y="3" font-family="sans-serif"/></g><g class="relationship" transform="translate(405.5423062144921 -470.6006437567138) rotate(207.24416317994985)"><path class="outline" fill="#A5ABB6" stroke="none" d="M 25 0.5 L 20.576533594516988 0.5 L 20.576533594516988 -0.5 L 25 -0.5 Z M 20.576533594516988 0.5 L 16.153067189033976 0.5 L 16.153067189033976 3.5 L 23.153067189033976 0 L 16.153067189033976 -3.5 L 16.153067189033976 -0.5 L 20.576533594516988 -0.5 Z"/><text text-anchor="middle" pointer-events="none" font-size="8px" fill="#000000" x="20.576533594516988" y="3" transform="rotate(180 20.576533594516988 0)" font-family="sans-serif"/></g><g class="relationship" transform="translate(452.39938310929875 -259.022598882921) rotate(289.94034330251293)"><path class="outline" fill="#A5ABB6" stroke="none" d="M 25 0.5 L 41.6904502540394 0.5 L 41.6904502540394 -0.5 L 25 -0.5 Z M 83.6904502540394 0.5 L 100.3809005080788 0.5 L 100.3809005080788 3.5 L 107.3809005080788 0 L 100.3809005080788 -3.5 L 100.3809005080788 -0.5 L 83.6904502540394 -0.5 Z"/><text text-anchor="middle" pointer-events="none" font-size="8px" fill="#000000" x="62.6904502540394" y="3" font-family="sans-serif">CHILD_IN</text></g><g class="relationship" transform="translate(542.181060012319 -443.2465136281962) rotate(268.46287442623407)"><path class="outline" fill="#A5ABB6" stroke="none" d="M 25 0.5 L 41.56092489282436 0.5 L 41.56092489282436 -0.5 L 25 -0.5 Z M 83.56092489282436 0.5 L 100.12184978564872 0.5 L 100.12184978564872 3.5 L 107.12184978564872 0 L 100.12184978564872 -3.5 L 100.12184978564872 -0.5 L 83.56092489282436 -0.5 Z"/><text text-anchor="middle" pointer-events="none" font-size="8px" fill="#000000" x="62.56092489282436" y="3" transform="rotate(180 62.56092489282436 0)" font-family="sans-serif">CHILD_IN</text></g><g class="relationship" transform="translate(568.5145984920222 -530.9415213143466) rotate(224.9118088329443)"><path class="outline" fill="#A5ABB6" stroke="none" d="M 25 0.5 L 24.81017415257552 0.5 L 24.81017415257552 -0.5 L 25 -0.5 Z M 24.81017415257552 0.5 L 24.62034830515104 0.5 L 24.62034830515104 3.5 L 31.62034830515104 0 L 24.62034830515104 -3.5 L 24.62034830515104 -0.5 L 24.81017415257552 -0.5 Z"/><text text-anchor="middle" pointer-events="none" font-size="8px" fill="#000000" x="24.81017415257552" y="3" transform="rotate(180 24.81017415257552 0)" font-family="sans-serif"/></g><g class="relationship" transform="translate(518.6442332964161 -527.5125684281168) rotate(301.86269841713545)"><path class="outline" fill="#A5ABB6" stroke="none" d="M 25 0.5 L 23.317702050255374 0.5 L 23.317702050255374 -0.5 L 25 -0.5 Z M 23.317702050255374 0.5 L 21.635404100510748 0.5 L 21.635404100510748 3.5 L 28.635404100510748 0 L 21.635404100510748 -3.5 L 21.635404100510748 -0.5 L 23.317702050255374 -0.5 Z"/><text text-anchor="middle" pointer-events="none" font-size="8px" fill="#000000" x="23.317702050255374" y="3" font-family="sans-serif"/></g><g class="relationship" transform="translate(838.1374482071581 -323.07737477750766) rotate(268.87170814604997)"><path class="outline" fill="#A5ABB6" stroke="none" d="M 25 0.5 L 49.61934219021282 0.5 L 49.61934219021282 -0.5 L 25 -0.5 Z M 91.61934219021282 0.5 L 116.23868438042564 0.5 L 116.23868438042564 3.5 L 123.23868438042564 0 L 116.23868438042564 -3.5 L 116.23868438042564 -0.5 L 91.61934219021282 -0.5 Z"/><text text-anchor="middle" pointer-events="none" font-size="8px" fill="#000000" x="70.61934219021282" y="3" transform="rotate(180 70.61934219021282 0)" font-family="sans-serif">CHILD_IN</text></g><g class="relationship" transform="translate(468.3868941851083 -472.8892590622804) rotate(245.77449368640703)"><path class="outline" fill="#A5ABB6" stroke="none" d="M 25 0.5 L 30.837502821477067 0.5 L 30.837502821477067 -0.5 L 25 -0.5 Z M 72.83750282147707 0.5 L 78.67500564295413 0.5 L 78.67500564295413 3.5 L 85.67500564295413 0 L 78.67500564295413 -3.5 L 78.67500564295413 -0.5 L 72.83750282147707 -0.5 Z"/><text text-anchor="middle" pointer-events="none" font-size="8px" fill="#000000" x="51.83750282147707" y="3" transform="rotate(180 51.83750282147707 0)" font-family="sans-serif">CHILD_IN</text></g><g class="relationship" transform="translate(916.4338352851213 -226.68960777336503) rotate(291.0523612198215)"><path class="outline" fill="#A5ABB6" stroke="none" d="M 25 0.5 L 54.713408532146104 0.5 L 54.713408532146104 -0.5 L 25 -0.5 Z M 96.7134085321461 0.5 L 126.42681706429221 0.5 L 126.42681706429221 3.5 L 133.4268170642922 0 L 126.42681706429221 -3.5 L 126.42681706429221 -0.5 L 96.7134085321461 -0.5 Z"/><text text-anchor="middle" pointer-events="none" font-size="8px" fill="#000000" x="75.7134085321461" y="3" font-family="sans-serif">CHILD_IN</text></g><g class="relationship" transform="translate(180.23953896712317 -355.16476973227907) rotate(251.0291293556595)"><path class="outline" fill="#A5ABB6" stroke="none" d="M 25 0.5 L 54.211641698911905 0.5 L 54.211641698911905 -0.5 L 25 -0.5 Z M 96.2116416989119 0.5 L 125.42328339782381 0.5 L 125.42328339782381 3.5 L 132.4232833978238 0 L 125.42328339782381 -3.5 L 125.42328339782381 -0.5 L 96.2116416989119 -0.5 Z"/><text text-anchor="middle" pointer-events="none" font-size="8px" fill="#000000" x="75.2116416989119" y="3" transform="rotate(180 75.2116416989119 0)" font-family="sans-serif">CHILD_IN</text></g><g class="relationship" transform="translate(865.2917319126072 -439.5819481391895) rotate(209.29662956518058)"><path class="outline" fill="#A5ABB6" stroke="none" d="M 25 0.5 L 21.07256674146311 0.5 L 21.07256674146311 -0.5 L 25 -0.5 Z M 21.07256674146311 0.5 L 17.14513348292622 0.5 L 17.14513348292622 3.5 L 24.14513348292622 0 L 17.14513348292622 -3.5 L 17.14513348292622 -0.5 L 21.07256674146311 -0.5 Z"/><text text-anchor="middle" pointer-events="none" font-size="8px" fill="#000000" x="21.07256674146311" y="3" transform="rotate(180 21.07256674146311 0)" font-family="sans-serif"/></g><g class="relationship" transform="translate(663.8085242474517 -628.1482809238253) rotate(326.82255981497104)"><path class="outline" fill="#A5ABB6" stroke="none" d="M 25 0.5 L 24.05211548983293 0.5 L 24.05211548983293 -0.5 L 25 -0.5 Z M 24.05211548983293 0.5 L 23.104230979665857 0.5 L 23.104230979665857 3.5 L 30.104230979665857 0 L 23.104230979665857 -3.5 L 23.104230979665857 -0.5 L 24.05211548983293 -0.5 Z"/><text text-anchor="middle" pointer-events="none" font-size="8px" fill="#000000" x="24.05211548983293" y="3" font-family="sans-serif"/></g><g class="relationship" transform="translate(971.2870029522014 -439.97806440590654) rotate(234.9208442338114)"><path class="outline" fill="#A5ABB6" stroke="none" d="M 25 0.5 L 23.82843775513433 0.5 L 23.82843775513433 -0.5 L 25 -0.5 Z M 23.82843775513433 0.5 L 22.656875510268662 0.5 L 22.656875510268662 3.5 L 29.656875510268662 0 L 22.656875510268662 -3.5 L 22.656875510268662 -0.5 L 23.82843775513433 -0.5 Z"/><text text-anchor="middle" pointer-events="none" font-size="8px" fill="#000000" x="23.82843775513433" y="3" transform="rotate(180 23.82843775513433 0)" font-family="sans-serif"/></g><g class="relationship" transform="translate(737.0882635888179 -540.7006566411526) rotate(307.092874040234)"><path class="outline" fill="#A5ABB6" stroke="none" d="M 25 0.5 L 20.35044366731086 0.5 L 20.35044366731086 -0.5 L 25 -0.5 Z M 20.35044366731086 0.5 L 15.700887334621719 0.5 L 15.700887334621719 3.5 L 22.70088733462172 0 L 15.700887334621719 -3.5 L 15.700887334621719 -0.5 L 20.35044366731086 -0.5 Z"/><text text-anchor="middle" pointer-events="none" font-size="8px" fill="#000000" x="20.35044366731086" y="3" font-family="sans-serif"/></g><g class="relationship" transform="translate(783.6313409759452 -541.4358534631514) rotate(223.3838784804508)"><path class="outline" fill="#A5ABB6" stroke="none" d="M 25 0.5 L 22.452164928483334 0.5 L 22.452164928483334 -0.5 L 25 -0.5 Z M 22.452164928483334 0.5 L 19.90432985696667 0.5 L 19.90432985696667 3.5 L 26.90432985696667 0 L 19.90432985696667 -3.5 L 19.90432985696667 -0.5 L 22.452164928483334 -0.5 Z"/><text text-anchor="middle" pointer-events="none" font-size="8px" fill="#000000" x="22.452164928483334" y="3" transform="rotate(180 22.452164928483334 0)" font-family="sans-serif"/></g><g class="relationship" transform="translate(236.52505712865917 -452.5862418414337) rotate(325.7470740807097)"><path class="outline" fill="#A5ABB6" stroke="none" d="M 25 0.5 L 21.82524822189665 0.5 L 21.82524822189665 -0.5 L 25 -0.5 Z M 21.82524822189665 0.5 L 18.6504964437933 0.5 L 18.6504964437933 3.5 L 25.6504964437933 0 L 18.6504964437933 -3.5 L 18.6504964437933 -0.5 L 21.82524822189665 -0.5 Z"/><text text-anchor="middle" pointer-events="none" font-size="8px" fill="#000000" x="21.82524822189665" y="3" font-family="sans-serif"/></g><g class="relationship" transform="translate(940.5532198674836 -343.21636486498403) rotate(327.69474387709226)"><path class="outline" fill="#A5ABB6" stroke="none" d="M 25 0.5 L 20.210436198951033 0.5 L 20.210436198951033 -0.5 L 25 -0.5 Z M 20.210436198951033 0.5 L 15.420872397902066 0.5 L 15.420872397902066 3.5 L 22.420872397902066 0 L 15.420872397902066 -3.5 L 15.420872397902066 -0.5 L 20.210436198951033 -0.5 Z"/><text text-anchor="middle" pointer-events="none" font-size="8px" fill="#000000" x="20.210436198951033" y="3" font-family="sans-serif"/></g><g class="relationship" transform="translate(940.5532198674836 -343.21636486498403) rotate(273.51746378999866)"><path class="outline" fill="#A5ABB6" stroke="none" d="M 25 0.5 L 47.72956845713267 0.5 L 47.72956845713267 -0.5 L 25 -0.5 Z M 89.72956845713267 0.5 L 112.45913691426534 0.5 L 112.45913691426534 3.5 L 119.45913691426534 0 L 112.45913691426534 -3.5 L 112.45913691426534 -0.5 L 89.72956845713267 -0.5 Z"/><text text-anchor="middle" pointer-events="none" font-size="8px" fill="#000000" x="68.72956845713267" y="3" font-family="sans-serif">CHILD_IN</text></g><g class="relationship" transform="translate(399.8708677076405 -546.246943150762) rotate(334.60108082439524)"><path class="outline" fill="#A5ABB6" stroke="none" d="M 25 0.5 L 20.194170281121096 0.5 L 20.194170281121096 -0.5 L 25 -0.5 Z M 20.194170281121096 0.5 L 15.388340562242192 0.5 L 15.388340562242192 3.5 L 22.388340562242192 0 L 15.388340562242192 -3.5 L 15.388340562242192 -0.5 L 20.194170281121096 -0.5 Z"/><text text-anchor="middle" pointer-events="none" font-size="8px" fill="#000000" x="20.194170281121096" y="3" font-family="sans-serif"/></g><g class="relationship" transform="translate(231.94062118108627 -553.5428805231627) rotate(320.7040454359629)"><path class="outline" fill="#A5ABB6" stroke="none" d="M 25 0.5 L 24.437453819491424 0.5 L 24.437453819491424 -0.5 L 25 -0.5 Z M 24.437453819491424 0.5 L 23.874907638982847 0.5 L 23.874907638982847 3.5 L 30.874907638982847 0 L 23.874907638982847 -3.5 L 23.874907638982847 -0.5 L 24.437453819491424 -0.5 Z"/><text text-anchor="middle" pointer-events="none" font-size="8px" fill="#000000" x="24.437453819491424" y="3" font-family="sans-serif"/></g><g class="relationship" transform="translate(544.2737279633291 -250.7440695278971) rotate(246.3927806662697)"><path class="outline" fill="#A5ABB6" stroke="none" d="M 25 0.5 L 47.7280623428144 0.5 L 47.7280623428144 -0.5 L 25 -0.5 Z M 89.7280623428144 0.5 L 112.4561246856288 0.5 L 112.4561246856288 3.5 L 119.4561246856288 0 L 112.4561246856288 -3.5 L 112.4561246856288 -0.5 L 89.7280623428144 -0.5 Z"/><text text-anchor="middle" pointer-events="none" font-size="8px" fill="#000000" x="68.7280623428144" y="3" transform="rotate(180 68.7280623428144 0)" font-family="sans-serif">CHILD_IN</text></g><g class="relationship" transform="translate(461.59720457018545 -344.1682669298166) rotate(320.74370271504216)"><path class="outline" fill="#A5ABB6" stroke="none" d="M 25 0.5 L 23.910255922648187 0.5 L 23.910255922648187 -0.5 L 25 -0.5 Z M 23.910255922648187 0.5 L 22.820511845296373 0.5 L 22.820511845296373 3.5 L 29.820511845296373 0 L 22.820511845296373 -3.5 L 22.820511845296373 -0.5 L 23.910255922648187 -0.5 Z"/><text text-anchor="middle" pointer-events="none" font-size="8px" fill="#000000" x="23.910255922648187" y="3" font-family="sans-serif"/></g><g class="relationship" transform="translate(160.30265309972003 -464.57221542918796) rotate(311.95920123266666)"><path class="outline" fill="#A5ABB6" stroke="none" d="M 25 0.5 L 60.22872262275352 0.5 L 60.22872262275352 -0.5 L 25 -0.5 Z M 102.22872262275352 0.5 L 137.45744524550705 0.5 L 137.45744524550705 3.5 L 144.45744524550705 0 L 137.45744524550705 -3.5 L 137.45744524550705 -0.5 L 102.22872262275352 -0.5 Z"/><text text-anchor="middle" pointer-events="none" font-size="8px" fill="#000000" x="81.22872262275352" y="3" font-family="sans-serif">CHILD_IN</text></g><g class="relationship" transform="translate(354.487077500101 -458.0097488011527) rotate(233.17580186514692)"><path class="outline" fill="#A5ABB6" stroke="none" d="M 25 0.5 L 58.84233173174951 0.5 L 58.84233173174951 -0.5 L 25 -0.5 Z M 100.84233173174951 0.5 L 134.68466346349902 0.5 L 134.68466346349902 3.5 L 141.68466346349902 0 L 134.68466346349902 -3.5 L 134.68466346349902 -0.5 L 100.84233173174951 -0.5 Z"/><text text-anchor="middle" pointer-events="none" font-size="8px" fill="#000000" x="79.84233173174951" y="3" transform="rotate(180 79.84233173174951 0)" font-family="sans-serif">CHILD_IN</text></g><g class="relationship" transform="translate(290.72363066970723 -450.14788627561387) rotate(258.1396758859822)"><path class="outline" fill="#A5ABB6" stroke="none" d="M 25 0.5 L 49.0511632716474 0.5 L 49.0511632716474 -0.5 L 25 -0.5 Z M 91.0511632716474 0.5 L 115.1023265432948 0.5 L 115.1023265432948 3.5 L 122.1023265432948 0 L 115.1023265432948 -3.5 L 115.1023265432948 -0.5 L 91.0511632716474 -0.5 Z"/><text text-anchor="middle" pointer-events="none" font-size="8px" fill="#000000" x="70.0511632716474" y="3" transform="rotate(180 70.0511632716474 0)" font-family="sans-serif">CHILD_IN</text></g><g class="relationship" transform="translate(639.6736186536185 -446.3557130325593) rotate(278.7317528390451)"><path class="outline" fill="#A5ABB6" stroke="none" d="M 25 0.5 L 45.60235252493492 0.5 L 45.60235252493492 -0.5 L 25 -0.5 Z M 87.60235252493493 0.5 L 108.20470504986984 0.5 L 108.20470504986984 3.5 L 115.20470504986984 0 L 108.20470504986984 -3.5 L 108.20470504986984 -0.5 L 87.60235252493493 -0.5 Z"/><text text-anchor="middle" pointer-events="none" font-size="8px" fill="#000000" x="66.60235252493493" y="3" font-family="sans-serif">CHILD_IN</text></g><g class="relationship" transform="translate(290.72363066970723 -450.14788627561387) rotate(222.3005289470891)"><path class="outline" fill="#A5ABB6" stroke="none" d="M 25 0.5 L 20.7187880624788 0.5 L 20.7187880624788 -0.5 L 25 -0.5 Z M 20.7187880624788 0.5 L 16.4375761249576 0.5 L 16.4375761249576 3.5 L 23.4375761249576 0 L 16.4375761249576 -3.5 L 16.4375761249576 -0.5 L 20.7187880624788 -0.5 Z"/><text text-anchor="middle" pointer-events="none" font-size="8px" fill="#000000" x="20.7187880624788" y="3" transform="rotate(180 20.7187880624788 0)" font-family="sans-serif"/></g><g class="relationship" transform="translate(920.9323391951814 -446.84768800743194) rotate(317.1331541768987)"><path class="outline" fill="#A5ABB6" stroke="none" d="M 25 0.5 L 22.803505208937423 0.5 L 22.803505208937423 -0.5 L 25 -0.5 Z M 22.803505208937423 0.5 L 20.607010417874847 0.5 L 20.607010417874847 3.5 L 27.607010417874847 0 L 20.607010417874847 -3.5 L 20.607010417874847 -0.5 L 22.803505208937423 -0.5 Z"/><text text-anchor="middle" pointer-events="none" font-size="8px" fill="#000000" x="22.803505208937423" y="3" font-family="sans-serif"/></g><g class="relationship" transform="translate(568.5145984920222 -530.9415213143466) rotate(317.24140429621696)"><path class="outline" fill="#A5ABB6" stroke="none" d="M 25 0.5 L 70.75315446756346 0.5 L 70.75315446756346 -0.5 L 25 -0.5 Z M 112.75315446756346 0.5 L 158.50630893512692 0.5 L 158.50630893512692 3.5 L 165.50630893512692 0 L 158.50630893512692 -3.5 L 158.50630893512692 -0.5 L 112.75315446756346 -0.5 Z"/><text text-anchor="middle" pointer-events="none" font-size="8px" fill="#000000" x="91.75315446756346" y="3" font-family="sans-serif">CHILD_IN</text></g><g class="relationship" transform="translate(754.1279686584355 -467.55171015823026) rotate(303.81220384109264)"><path class="outline" fill="#A5ABB6" stroke="none" d="M 25 0.5 L 61.531774384923835 0.5 L 61.531774384923835 -0.5 L 25 -0.5 Z M 103.53177438492384 0.5 L 140.06354876984767 0.5 L 140.06354876984767 3.5 L 147.06354876984767 0 L 140.06354876984767 -3.5 L 140.06354876984767 -0.5 L 103.53177438492384 -0.5 Z"/><text text-anchor="middle" pointer-events="none" font-size="8px" fill="#000000" x="82.53177438492384" y="3" font-family="sans-serif">CHILD_IN</text></g><g class="relationship" transform="translate(454.6735381308166 -546.423648697083) rotate(208.23169084430026)"><path class="outline" fill="#A5ABB6" stroke="none" d="M 25 0.5 L 18.496969980446366 0.5 L 18.496969980446366 -0.5 L 25 -0.5 Z M 18.496969980446366 0.5 L 11.993939960892728 0.5 L 11.993939960892728 3.5 L 18.993939960892728 0 L 11.993939960892728 -3.5 L 11.993939960892728 -0.5 L 18.496969980446366 -0.5 Z"/><text text-anchor="middle" pointer-events="none" font-size="8px" fill="#000000" x="18.496969980446366" y="3" transform="rotate(180 18.496969980446366 0)" font-family="sans-serif"/></g><g class="relationship" transform="translate(405.5423062144921 -470.6006437567138) rotate(284.7577206625043)"><path class="outline" fill="#A5ABB6" stroke="none" d="M 25 0.5 L 29.29636428181673 0.5 L 29.29636428181673 -0.5 L 25 -0.5 Z M 71.29636428181672 0.5 L 75.59272856363346 0.5 L 75.59272856363346 3.5 L 82.59272856363346 0 L 75.59272856363346 -3.5 L 75.59272856363346 -0.5 L 71.29636428181672 -0.5 Z"/><text text-anchor="middle" pointer-events="none" font-size="8px" fill="#000000" x="50.29636428181673" y="3" font-family="sans-serif">CHILD_IN</text></g><g class="relationship" transform="translate(454.6735381308166 -546.423648697083) rotate(336.87002797409036)"><path class="outline" fill="#A5ABB6" stroke="none" d="M 25 0.5 L 114.9580038943127 0.5 L 114.9580038943127 -0.5 L 25 -0.5 Z M 156.9580038943127 0.5 L 246.9160077886254 0.5 L 246.9160077886254 3.5 L 253.9160077886254 0 L 246.9160077886254 -3.5 L 246.9160077886254 -0.5 L 156.9580038943127 -0.5 Z"/><text text-anchor="middle" pointer-events="none" font-size="8px" fill="#000000" x="135.9580038943127" y="3" font-family="sans-serif">CHILD_IN</text></g><g class="relationship" transform="translate(865.2917319126072 -439.5819481391895) rotate(261.4720900748547)"><path class="outline" fill="#A5ABB6" stroke="none" d="M 25 0.5 L 63.12008731243945 0.5 L 63.12008731243945 -0.5 L 25 -0.5 Z M 105.12008731243945 0.5 L 143.2401746248789 0.5 L 143.2401746248789 3.5 L 150.2401746248789 0 L 143.2401746248789 -3.5 L 143.2401746248789 -0.5 L 105.12008731243945 -0.5 Z"/><text text-anchor="middle" pointer-events="none" font-size="8px" fill="#000000" x="84.12008731243945" y="3" transform="rotate(180 84.12008731243945 0)" font-family="sans-serif">CHILD_IN</text></g><g class="relationship" transform="translate(737.0882635888179 -540.7006566411526) rotate(250.04758487852075)"><path class="outline" fill="#A5ABB6" stroke="none" d="M 25 0.5 L 41.189768054723004 0.5 L 41.189768054723004 -0.5 L 25 -0.5 Z M 83.189768054723 0.5 L 99.37953610944601 0.5 L 99.37953610944601 3.5 L 106.37953610944601 0 L 99.37953610944601 -3.5 L 99.37953610944601 -0.5 L 83.189768054723 -0.5 Z"/><text text-anchor="middle" pointer-events="none" font-size="8px" fill="#000000" x="62.189768054723004" y="3" transform="rotate(180 62.189768054723004 0)" font-family="sans-serif">CHILD_IN</text></g><g class="relationship" transform="translate(719.2108401407572 -628.6658535574475) rotate(224.46093222528043)"><path class="outline" fill="#A5ABB6" stroke="none" d="M 25 0.5 L 19.29705745240875 0.5 L 19.29705745240875 -0.5 L 25 -0.5 Z M 19.29705745240875 0.5 L 13.594114904817499 0.5 L 13.594114904817499 3.5 L 20.5941149048175 0 L 13.594114904817499 -3.5 L 13.594114904817499 -0.5 L 19.29705745240875 -0.5 Z"/><text text-anchor="middle" pointer-events="none" font-size="8px" fill="#000000" x="19.29705745240875" y="3" transform="rotate(180 19.29705745240875 0)" font-family="sans-serif"/></g><g class="relationship" transform="translate(823.7128493057179 -572.3861345195264) rotate(211.59504633655894)"><path class="outline" fill="#A5ABB6" stroke="none" d="M 25 0.5 L 57.161781127414955 0.5 L 57.161781127414955 -0.5 L 25 -0.5 Z M 99.16178112741495 0.5 L 131.3235622548299 0.5 L 131.3235622548299 3.5 L 138.3235622548299 0 L 131.3235622548299 -3.5 L 131.3235622548299 -0.5 L 99.16178112741495 -0.5 Z"/><text text-anchor="middle" pointer-events="none" font-size="8px" fill="#000000" x="78.16178112741495" y="3" transform="rotate(180 78.16178112741495 0)" font-family="sans-serif">CHILD_IN</text></g><g class="relationship" transform="translate(630.9549648489093 -548.3254770492229) rotate(303.13060594587785)"><path class="outline" fill="#A5ABB6" stroke="none" d="M 25 0.5 L 43.7630308027778 0.5 L 43.7630308027778 -0.5 L 25 -0.5 Z M 85.76303080277779 0.5 L 104.5260616055556 0.5 L 104.5260616055556 3.5 L 111.5260616055556 0 L 104.5260616055556 -3.5 L 104.5260616055556 -0.5 L 85.76303080277779 -0.5 Z"/><text text-anchor="middle" pointer-events="none" font-size="8px" fill="#000000" x="64.76303080277779" y="3" font-family="sans-serif">CHILD_IN</text></g><g class="relationship" transform="translate(160.30265309972003 -464.57221542918796) rotate(223.79845792298863)"><path class="outline" fill="#A5ABB6" stroke="none" d="M 25 0.5 L 22.26260904161154 0.5 L 22.26260904161154 -0.5 L 25 -0.5 Z M 22.26260904161154 0.5 L 19.52521808322308 0.5 L 19.52521808322308 3.5 L 26.52521808322308 0 L 19.52521808322308 -3.5 L 19.52521808322308 -0.5 L 22.26260904161154 -0.5 Z"/><text text-anchor="middle" pointer-events="none" font-size="8px" fill="#000000" x="22.26260904161154" y="3" transform="rotate(180 22.26260904161154 0)" font-family="sans-serif"/></g><g class="relationship" transform="translate(823.7128493057179 -572.3861345195264) rotate(304.7691368277016)"><path class="outline" fill="#A5ABB6" stroke="none" d="M 25 0.5 L 19.621235955056743 0.5 L 19.621235955056743 -0.5 L 25 -0.5 Z M 19.621235955056743 0.5 L 14.242471910113487 0.5 L 14.242471910113487 3.5 L 21.242471910113487 0 L 14.242471910113487 -3.5 L 14.242471910113487 -0.5 L 19.621235955056743 -0.5 Z"/><text text-anchor="middle" pointer-events="none" font-size="8px" fill="#000000" x="19.621235955056743" y="3" font-family="sans-serif"/></g><g class="relationship" transform="translate(997.6138785308191 -228.31635904307106) rotate(257.3579305035088)"><path class="outline" fill="#A5ABB6" stroke="none" d="M 25 0.5 L 50.75599880635407 0.5 L 50.75599880635407 -0.5 L 25 -0.5 Z M 92.75599880635407 0.5 L 118.51199761270814 0.5 L 118.51199761270814 3.5 L 125.51199761270814 0 L 118.51199761270814 -3.5 L 118.51199761270814 -0.5 L 92.75599880635407 -0.5 Z"/><text text-anchor="middle" pointer-events="none" font-size="8px" fill="#000000" x="71.75599880635407" y="3" transform="rotate(180 71.75599880635407 0)" font-family="sans-serif">CHILD_IN</text></g><g class="relationship" transform="translate(873.5493204741653 -565.211489447189) rotate(225.72362527370763)"><path class="outline" fill="#A5ABB6" stroke="none" d="M 25 0.5 L 26.932866131040598 0.5 L 26.932866131040598 -0.5 L 25 -0.5 Z M 26.932866131040598 0.5 L 28.865732262081195 0.5 L 28.865732262081195 3.5 L 35.865732262081195 0 L 28.865732262081195 -3.5 L 28.865732262081195 -0.5 L 26.932866131040598 -0.5 Z"/><text text-anchor="middle" pointer-events="none" font-size="8px" fill="#000000" x="26.932866131040598" y="3" transform="rotate(180 26.932866131040598 0)" font-family="sans-serif"/></g><g class="relationship" transform="translate(920.9323391951814 -446.84768800743194) rotate(242.29418526967783)"><path class="outline" fill="#A5ABB6" stroke="none" d="M 25 0.5 L 68.39187071763212 0.5 L 68.39187071763212 -0.5 L 25 -0.5 Z M 110.39187071763212 0.5 L 153.78374143526423 0.5 L 153.78374143526423 3.5 L 160.78374143526423 0 L 153.78374143526423 -3.5 L 153.78374143526423 -0.5 L 110.39187071763212 -0.5 Z"/><text text-anchor="middle" pointer-events="none" font-size="8px" fill="#000000" x="89.39187071763212" y="3" transform="rotate(180 89.39187071763212 0)" font-family="sans-serif">CHILD_IN</text></g><g class="relationship" transform="translate(92.57219866669558 -354.23258073185025) rotate(286.9629986298813)"><path class="outline" fill="#A5ABB6" stroke="none" d="M 25 0.5 L 53.894169230920696 0.5 L 53.894169230920696 -0.5 L 25 -0.5 Z M 95.8941692309207 0.5 L 124.78833846184139 0.5 L 124.78833846184139 3.5 L 131.7883384618414 0 L 124.78833846184139 -3.5 L 124.78833846184139 -0.5 L 95.8941692309207 -0.5 Z"/><text text-anchor="middle" pointer-events="none" font-size="8px" fill="#000000" x="74.8941692309207" y="3" font-family="sans-serif">CHILD_IN</text></g><g class="relationship" transform="translate(630.9549648489093 -548.3254770492229) rotate(321.84373830960277)"><path class="outline" fill="#A5ABB6" stroke="none" d="M 25 0.5 L 21.62990767662372 0.5 L 21.62990767662372 -0.5 L 25 -0.5 Z M 21.62990767662372 0.5 L 18.25981535324744 0.5 L 18.25981535324744 3.5 L 25.25981535324744 0 L 18.25981535324744 -3.5 L 18.25981535324744 -0.5 L 21.62990767662372 -0.5 Z"/><text text-anchor="middle" pointer-events="none" font-size="8px" fill="#000000" x="21.62990767662372" y="3" font-family="sans-serif"/></g><g class="relationship" transform="translate(682.0541530708723 -543.707909923517) rotate(228.4812350758981)"><path class="outline" fill="#A5ABB6" stroke="none" d="M 25 0.5 L 21.630566742168035 0.5 L 21.630566742168035 -0.5 L 25 -0.5 Z M 21.630566742168035 0.5 L 18.26113348433607 0.5 L 18.26113348433607 3.5 L 25.26113348433607 0 L 18.26113348433607 -3.5 L 18.26113348433607 -0.5 L 21.630566742168035 -0.5 Z"/><text text-anchor="middle" pointer-events="none" font-size="8px" fill="#000000" x="21.630566742168035" y="3" transform="rotate(180 21.630566742168035 0)" font-family="sans-serif"/></g><g class="relationship" transform="translate(114.94398598091627 -459.99622691780667) rotate(302.4661245804814)"><path class="outline" fill="#A5ABB6" stroke="none" d="M 25 0.5 L 21.693280741685708 0.5 L 21.693280741685708 -0.5 L 25 -0.5 Z M 21.693280741685708 0.5 L 18.386561483371416 0.5 L 18.386561483371416 3.5 L 25.386561483371416 0 L 18.386561483371416 -3.5 L 18.386561483371416 -0.5 L 21.693280741685708 -0.5 Z"/><text text-anchor="middle" pointer-events="none" font-size="8px" fill="#000000" x="21.693280741685708" y="3" font-family="sans-serif"/></g></g><g class="layer nodes"><g class="node" transform="translate(669.6294256394817,-467.8936825970207)"><circle class="outline" cx="0" cy="0" r="10" fill="#6DCE9E" stroke="#60B58B" stroke-width="2px"/><text text-anchor="middle" pointer-events="none" y="5" font-size="10px" fill="#FFFFFF" font-family="sans-serif"> 1</text></g><g class="node" transform="translate(706.6370166245407,-339.78540431026425)"><circle class="outline" cx="0" cy="0" r="25" fill="#FF756E" stroke="#E06760" stroke-width="2px"/><text text-anchor="middle" pointer-events="none" y="0" font-size="10px" fill="#FFFFFF" font-family="sans-serif"> DAVID </text><text text-anchor="middle" pointer-events="none" y="10" font-size="10px" fill="#FFFFFF" font-family="sans-serif"> /GOTS…</text></g><g class="node" transform="translate(621.2736351740792,-341.23419846637773)"><circle class="outline" cx="0" cy="0" r="25" fill="#FF756E" stroke="#E06760" stroke-width="2px"/><text text-anchor="middle" pointer-events="none" y="0" font-size="10px" fill="#FFFFFF" font-family="sans-serif"> ALEX </text><text text-anchor="middle" pointer-events="none" y="10" font-size="10px" fill="#FFFFFF" font-family="sans-serif"> /GOTS…</text></g><g class="node" transform="translate(691.7439052128905,-442.3129967041692)"><circle class="outline" cx="0" cy="0" r="25" fill="#FF756E" stroke="#E06760" stroke-width="2px"/><text text-anchor="middle" pointer-events="none" y="0" font-size="10px" fill="#FFFFFF" font-family="sans-serif"> RELA </text><text text-anchor="middle" pointer-events="none" y="10" font-size="10px" fill="#FFFFFF" font-family="sans-serif"> /UNKN…</text></g><g class="node" transform="translate(639.6736186536185,-446.3557130325593)"><circle class="outline" cx="0" cy="0" r="25" fill="#FF756E" stroke="#E06760" stroke-width="2px"/><text text-anchor="middle" pointer-events="none" y="0" font-size="10px" fill="#FFFFFF" font-family="sans-serif"> KUBA </text><text text-anchor="middle" pointer-events="none" y="10" font-size="10px" fill="#FFFFFF" font-family="sans-serif"> /GOTS…</text></g><g class="node" transform="translate(347.9972534251939,-376.7797431623692)"><circle class="outline" cx="0" cy="0" r="10" fill="#6DCE9E" stroke="#60B58B" stroke-width="2px"/><text text-anchor="middle" pointer-events="none" y="5" font-size="10px" fill="#FFFFFF" font-family="sans-serif"> 3</text></g><g class="node" transform="translate(302.5982682508222,-239.20534294887352)"><circle class="outline" cx="0" cy="0" r="25" fill="#FF756E" stroke="#E06760" stroke-width="2px"/><text text-anchor="middle" pointer-events="none" y="0" font-size="10px" fill="#FFFFFF" font-family="sans-serif"> KAREN </text><text text-anchor="middle" pointer-events="none" y="10" font-size="10px" fill="#FFFFFF" font-family="sans-serif"> /GOTS…</text></g><g class="node" transform="translate(378.71293520632753,-240.962000234243)"><circle class="outline" cx="0" cy="0" r="25" fill="#FF756E" stroke="#E06760" stroke-width="2px"/><text text-anchor="middle" pointer-events="none" y="5" font-size="10px" fill="#FFFFFF" font-family="sans-serif"> FRANCK…</text></g><g class="node" transform="translate(320.28156569062145,-346.60554419566364)"><circle class="outline" cx="0" cy="0" r="25" fill="#FF756E" stroke="#E06760" stroke-width="2px"/><text text-anchor="middle" pointer-events="none" y="5" font-size="10px" fill="#FFFFFF" font-family="sans-serif"> MESSA…</text></g><g class="node" transform="translate(368.24350519856523,-345.3705406098735)"><circle class="outline" cx="0" cy="0" r="25" fill="#FF756E" stroke="#E06760" stroke-width="2px"/><text text-anchor="middle" pointer-events="none" y="5" font-size="10px" fill="#FFFFFF" font-family="sans-serif"> ROGER,…</text></g><g class="node" transform="translate(990.0450418547191,-343.6383726479447)"><circle class="outline" cx="0" cy="0" r="25" fill="#FF756E" stroke="#E06760" stroke-width="2px"/><text text-anchor="middle" pointer-events="none" y="0" font-size="10px" fill="#FFFFFF" font-family="sans-serif"> MARION</text><text text-anchor="middle" pointer-events="none" y="10" font-size="10px" fill="#FFFFFF" font-family="sans-serif">  /UNKN…</text></g><g class="node" transform="translate(967.9557565286074,-360.5430480899066)"><circle class="outline" cx="0" cy="0" r="10" fill="#6DCE9E" stroke="#60B58B" stroke-width="2px"/><text text-anchor="middle" pointer-events="none" y="5" font-size="10px" fill="#FFFFFF" font-family="sans-serif"> 76</text></g><g class="node" transform="translate(515.1892562154508,-348.0557828470038)"><circle class="outline" cx="0" cy="0" r="25" fill="#FF756E" stroke="#E06760" stroke-width="2px"/><text text-anchor="middle" pointer-events="none" y="5" font-size="10px" fill="#FFFFFF" font-family="sans-serif"> FRADJI,…</text></g><g class="node" transform="translate(492.4311467379485,-369.36630602051633)"><circle class="outline" cx="0" cy="0" r="10" fill="#6DCE9E" stroke="#60B58B" stroke-width="2px"/><text text-anchor="middle" pointer-events="none" y="5" font-size="10px" fill="#FFFFFF" font-family="sans-serif"> 46</text></g><g class="node" transform="translate(292.10300450305834,-552.1299473374969)"><circle class="outline" cx="0" cy="0" r="25" fill="#FF756E" stroke="#E06760" stroke-width="2px"/><text text-anchor="middle" pointer-events="none" y="-5" font-size="10px" fill="#FFFFFF" font-family="sans-serif"> BER</text><text text-anchor="middle" pointer-events="none" y="5" font-size="10px" fill="#FFFFFF" font-family="sans-serif"> SHLOMO</text><text text-anchor="middle" pointer-events="none" y="15" font-size="10px" fill="#FFFFFF" font-family="sans-serif">  /FRA…</text></g><g class="node" transform="translate(263.5730961526261,-579.4300318085067)"><circle class="outline" cx="0" cy="0" r="10" fill="#6DCE9E" stroke="#60B58B" stroke-width="2px"/><text text-anchor="middle" pointer-events="none" y="5" font-size="10px" fill="#FFFFFF" font-family="sans-serif"> 47</text></g><g class="node" transform="translate(813.1754433687635,-433.3654117258869)"><circle class="outline" cx="0" cy="0" r="25" fill="#FF756E" stroke="#E06760" stroke-width="2px"/><text text-anchor="middle" pointer-events="none" y="5" font-size="10px" fill="#FFFFFF" font-family="sans-serif"> MICHAEL</text></g><g class="node" transform="translate(835.5138272800223,-456.2902256165216)"><circle class="outline" cx="0" cy="0" r="10" fill="#6DCE9E" stroke="#60B58B" stroke-width="2px"/><text text-anchor="middle" pointer-events="none" y="5" font-size="10px" fill="#FFFFFF" font-family="sans-serif"> 26</text></g><g class="node" transform="translate(461.59720457018545,-344.1682669298166)"><circle class="outline" cx="0" cy="0" r="25" fill="#FF756E" stroke="#E06760" stroke-width="2px"/><text text-anchor="middle" pointer-events="none" y="5" font-size="10px" fill="#FFFFFF" font-family="sans-serif"> CHANT…</text></g><g class="node" transform="translate(376.06711493839873,-485.7775658187892)"><circle class="outline" cx="0" cy="0" r="10" fill="#6DCE9E" stroke="#60B58B" stroke-width="2px"/><text text-anchor="middle" pointer-events="none" y="5" font-size="10px" fill="#FFFFFF" font-family="sans-serif"> 16</text></g><g class="node" transform="translate(354.487077500101,-458.0097488011527)"><circle class="outline" cx="0" cy="0" r="25" fill="#FF756E" stroke="#E06760" stroke-width="2px"/><text text-anchor="middle" pointer-events="none" y="0" font-size="10px" fill="#FFFFFF" font-family="sans-serif"> IDA </text><text text-anchor="middle" pointer-events="none" y="10" font-size="10px" fill="#FFFFFF" font-family="sans-serif"> /FRAJD…</text></g><g class="node" transform="translate(405.5423062144921,-470.6006437567138)"><circle class="outline" cx="0" cy="0" r="25" fill="#FF756E" stroke="#E06760" stroke-width="2px"/><text text-anchor="middle" pointer-events="none" y="0" font-size="10px" fill="#FFFFFF" font-family="sans-serif"> SZMUL </text><text text-anchor="middle" pointer-events="none" y="10" font-size="10px" fill="#FFFFFF" font-family="sans-serif"> /GOTS…</text></g><g class="node" transform="translate(452.39938310929875,-259.022598882921)"><circle class="outline" cx="0" cy="0" r="25" fill="#FF756E" stroke="#E06760" stroke-width="2px"/><text text-anchor="middle" pointer-events="none" y="5" font-size="10px" fill="#FFFFFF" font-family="sans-serif"> ALEXAN…</text></g><g class="node" transform="translate(539.0393033759402,-560.3262175159745)"><circle class="outline" cx="0" cy="0" r="10" fill="#6DCE9E" stroke="#60B58B" stroke-width="2px"/><text text-anchor="middle" pointer-events="none" y="5" font-size="10px" fill="#FFFFFF" font-family="sans-serif"> 19</text></g><g class="node" transform="translate(542.181060012319,-443.2465136281962)"><circle class="outline" cx="0" cy="0" r="25" fill="#FF756E" stroke="#E06760" stroke-width="2px"/><text text-anchor="middle" pointer-events="none" y="0" font-size="10px" fill="#FFFFFF" font-family="sans-serif"> SLANEK </text><text text-anchor="middle" pointer-events="none" y="10" font-size="10px" fill="#FFFFFF" font-family="sans-serif"> /RUBIN </text></g><g class="node" transform="translate(568.5145984920222,-530.9415213143466)"><circle class="outline" cx="0" cy="0" r="25" fill="#FF756E" stroke="#E06760" stroke-width="2px"/><text text-anchor="middle" pointer-events="none" y="0" font-size="10px" fill="#FFFFFF" font-family="sans-serif"> SLATA </text><text text-anchor="middle" pointer-events="none" y="10" font-size="10px" fill="#FFFFFF" font-family="sans-serif"> /GOTS…</text></g><g class="node" transform="translate(518.6442332964161,-527.5125684281168)"><circle class="outline" cx="0" cy="0" r="25" fill="#FF756E" stroke="#E06760" stroke-width="2px"/><text text-anchor="middle" pointer-events="none" y="5" font-size="10px" fill="#FFFFFF" font-family="sans-serif"> EPHRAIM</text></g><g class="node" transform="translate(838.1374482071581,-323.07737477750766)"><circle class="outline" cx="0" cy="0" r="25" fill="#FF756E" stroke="#E06760" stroke-width="2px"/><text text-anchor="middle" pointer-events="none" y="-5" font-size="10px" fill="#FFFFFF" font-family="sans-serif"> YONA </text><text text-anchor="middle" pointer-events="none" y="5" font-size="10px" fill="#FFFFFF" font-family="sans-serif"> /HIMEL </text><text text-anchor="middle" pointer-events="none" y="15" font-size="10px" fill="#FFFFFF" font-family="sans-serif"> /</text></g><g class="node" transform="translate(468.3868941851083,-472.8892590622804)"><circle class="outline" cx="0" cy="0" r="25" fill="#FF756E" stroke="#E06760" stroke-width="2px"/><text text-anchor="middle" pointer-events="none" y="5" font-size="10px" fill="#FFFFFF" font-family="sans-serif"> LIEBE,B…</text></g><g class="node" transform="translate(429.1286608768777,-560.138888415624)"><circle class="outline" cx="0" cy="0" r="10" fill="#6DCE9E" stroke="#60B58B" stroke-width="2px"/><text text-anchor="middle" pointer-events="none" y="5" font-size="10px" fill="#FFFFFF" font-family="sans-serif"> 61</text></g><g class="node" transform="translate(916.4338352851213,-226.68960777336503)"><circle class="outline" cx="0" cy="0" r="25" fill="#FF756E" stroke="#E06760" stroke-width="2px"/><text text-anchor="middle" pointer-events="none" y="0" font-size="10px" fill="#FFFFFF" font-family="sans-serif"> SHARON</text><text text-anchor="middle" pointer-events="none" y="10" font-size="10px" fill="#FFFFFF" font-family="sans-serif">  /GLIK…</text></g><g class="node" transform="translate(180.23953896712317,-355.16476973227907)"><circle class="outline" cx="0" cy="0" r="25" fill="#FF756E" stroke="#E06760" stroke-width="2px"/><text text-anchor="middle" pointer-events="none" y="0" font-size="10px" fill="#FFFFFF" font-family="sans-serif"> YORAM </text><text text-anchor="middle" pointer-events="none" y="10" font-size="10px" fill="#FFFFFF" font-family="sans-serif"> /MROUS</text></g><g class="node" transform="translate(133.939522961828,-489.8521862630235)"><circle class="outline" cx="0" cy="0" r="10" fill="#6DCE9E" stroke="#60B58B" stroke-width="2px"/><text text-anchor="middle" pointer-events="none" y="5" font-size="10px" fill="#FFFFFF" font-family="sans-serif"> 1…</text></g><g class="node" transform="translate(865.2917319126072,-439.5819481391895)"><circle class="outline" cx="0" cy="0" r="25" fill="#FF756E" stroke="#E06760" stroke-width="2px"/><text text-anchor="middle" pointer-events="none" y="0" font-size="10px" fill="#FFFFFF" font-family="sans-serif"> LALA </text><text text-anchor="middle" pointer-events="none" y="10" font-size="10px" fill="#FFFFFF" font-family="sans-serif"> /ROSE…</text></g><g class="node" transform="translate(663.8085242474517,-628.1482809238253)"><circle class="outline" cx="0" cy="0" r="25" fill="#FF756E" stroke="#E06760" stroke-width="2px"/><text text-anchor="middle" pointer-events="none" y="5" font-size="10px" fill="#FFFFFF" font-family="sans-serif"> WOLF,L…</text></g><g class="node" transform="translate(697.374957389098,-650.094668066537)"><circle class="outline" cx="0" cy="0" r="10" fill="#6DCE9E" stroke="#60B58B" stroke-width="2px"/><text text-anchor="middle" pointer-events="none" y="5" font-size="10px" fill="#FFFFFF" font-family="sans-serif"> 73</text></g><g class="node" transform="translate(948.4958963655822,-472.43161946223756)"><circle class="outline" cx="0" cy="0" r="10" fill="#6DCE9E" stroke="#60B58B" stroke-width="2px"/><text text-anchor="middle" pointer-events="none" y="5" font-size="10px" fill="#FFFFFF" font-family="sans-serif"> 53</text></g><g class="node" transform="translate(971.2870029522014,-439.97806440590654)"><circle class="outline" cx="0" cy="0" r="25" fill="#FF756E" stroke="#E06760" stroke-width="2px"/><text text-anchor="middle" pointer-events="none" y="0" font-size="10px" fill="#FFFFFF" font-family="sans-serif"> JACOV </text><text text-anchor="middle" pointer-events="none" y="10" font-size="10px" fill="#FFFFFF" font-family="sans-serif"> /GLIKM…</text></g><g class="node" transform="translate(756.8104560634807,-566.7848119171813)"><circle class="outline" cx="0" cy="0" r="10" fill="#6DCE9E" stroke="#60B58B" stroke-width="2px"/><text text-anchor="middle" pointer-events="none" y="5" font-size="10px" fill="#FFFFFF" font-family="sans-serif"> 32</text></g><g class="node" transform="translate(737.0882635888179,-540.7006566411526)"><circle class="outline" cx="0" cy="0" r="25" fill="#FF756E" stroke="#E06760" stroke-width="2px"/><text text-anchor="middle" pointer-events="none" y="0" font-size="10px" fill="#FFFFFF" font-family="sans-serif"> ISAAC </text><text text-anchor="middle" pointer-events="none" y="10" font-size="10px" fill="#FFFFFF" font-family="sans-serif"> /GOTS…</text></g><g class="node" transform="translate(783.6313409759452,-541.4358534631514)"><circle class="outline" cx="0" cy="0" r="25" fill="#FF756E" stroke="#E06760" stroke-width="2px"/><text text-anchor="middle" pointer-events="none" y="-5" font-size="10px" fill="#FFFFFF" font-family="sans-serif"> FRANIA</text><text text-anchor="middle" pointer-events="none" y="5" font-size="10px" fill="#FFFFFF" font-family="sans-serif"> </text><text text-anchor="middle" pointer-events="none" y="15" font-size="10px" fill="#FFFFFF" font-family="sans-serif"> /YOU…</text></g><g class="node" transform="translate(236.52505712865917,-452.5862418414337)"><circle class="outline" cx="0" cy="0" r="25" fill="#FF756E" stroke="#E06760" stroke-width="2px"/><text text-anchor="middle" pointer-events="none" y="0" font-size="10px" fill="#FFFFFF" font-family="sans-serif"> LEA </text><text text-anchor="middle" pointer-events="none" y="10" font-size="10px" fill="#FFFFFF" font-family="sans-serif"> /UNKN…</text></g><g class="node" transform="translate(265.9923673811346,-472.6520217458699)"><circle class="outline" cx="0" cy="0" r="10" fill="#6DCE9E" stroke="#60B58B" stroke-width="2px"/><text text-anchor="middle" pointer-events="none" y="5" font-size="10px" fill="#FFFFFF" font-family="sans-serif"> 79</text></g><g class="node" transform="translate(940.5532198674836,-343.21636486498403)"><circle class="outline" cx="0" cy="0" r="25" fill="#FF756E" stroke="#E06760" stroke-width="2px"/><text text-anchor="middle" pointer-events="none" y="0" font-size="10px" fill="#FFFFFF" font-family="sans-serif"> ZEEW </text><text text-anchor="middle" pointer-events="none" y="10" font-size="10px" fill="#FFFFFF" font-family="sans-serif"> /GLIKM…</text></g><g class="node" transform="translate(399.8708677076405,-546.246943150762)"><circle class="outline" cx="0" cy="0" r="25" fill="#FF756E" stroke="#E06760" stroke-width="2px"/><text text-anchor="middle" pointer-events="none" y="0" font-size="10px" fill="#FFFFFF" font-family="sans-serif"> RAHEL </text><text text-anchor="middle" pointer-events="none" y="10" font-size="10px" fill="#FFFFFF" font-family="sans-serif"> /HOFF…</text></g><g class="node" transform="translate(231.94062118108627,-553.5428805231627)"><circle class="outline" cx="0" cy="0" r="25" fill="#FF756E" stroke="#E06760" stroke-width="2px"/><text text-anchor="middle" pointer-events="none" y="5" font-size="10px" fill="#FFFFFF" font-family="sans-serif"> HAYA,R…</text></g><g class="node" transform="translate(544.2737279633291,-250.7440695278971)"><circle class="outline" cx="0" cy="0" r="25" fill="#FF756E" stroke="#E06760" stroke-width="2px"/><text text-anchor="middle" pointer-events="none" y="0" font-size="10px" fill="#FFFFFF" font-family="sans-serif"> JESSICA </text><text text-anchor="middle" pointer-events="none" y="10" font-size="10px" fill="#FFFFFF" font-family="sans-serif"> /MADAR</text></g><g class="node" transform="translate(160.30265309972003,-464.57221542918796)"><circle class="outline" cx="0" cy="0" r="25" fill="#FF756E" stroke="#E06760" stroke-width="2px"/><text text-anchor="middle" pointer-events="none" y="0" font-size="10px" fill="#FFFFFF" font-family="sans-serif"> GENIA </text><text text-anchor="middle" pointer-events="none" y="10" font-size="10px" fill="#FFFFFF" font-family="sans-serif"> /FRAJD…</text></g><g class="node" transform="translate(290.72363066970723,-450.14788627561387)"><circle class="outline" cx="0" cy="0" r="25" fill="#FF756E" stroke="#E06760" stroke-width="2px"/><text text-anchor="middle" pointer-events="none" y="0" font-size="10px" fill="#FFFFFF" font-family="sans-serif"> SHIMON</text><text text-anchor="middle" pointer-events="none" y="10" font-size="10px" fill="#FFFFFF" font-family="sans-serif">  /FRAJ…</text></g><g class="node" transform="translate(658.6807711416046,-570.1092839746673)"><circle class="outline" cx="0" cy="0" r="10" fill="#6DCE9E" stroke="#60B58B" stroke-width="2px"/><text text-anchor="middle" pointer-events="none" y="5" font-size="10px" fill="#FFFFFF" font-family="sans-serif"> 1…</text></g><g class="node" transform="translate(920.9323391951814,-446.84768800743194)"><circle class="outline" cx="0" cy="0" r="25" fill="#FF756E" stroke="#E06760" stroke-width="2px"/><text text-anchor="middle" pointer-events="none" y="5" font-size="10px" fill="#FFFFFF" font-family="sans-serif"> HENDO…</text></g><g class="node" transform="translate(841.5295300472364,-598.0504665468563)"><circle class="outline" cx="0" cy="0" r="10" fill="#6DCE9E" stroke="#60B58B" stroke-width="2px"/><text text-anchor="middle" pointer-events="none" y="5" font-size="10px" fill="#FFFFFF" font-family="sans-serif"> 89</text></g><g class="node" transform="translate(754.1279686584355,-467.55171015823026)"><circle class="outline" cx="0" cy="0" r="25" fill="#FF756E" stroke="#E06760" stroke-width="2px"/><text text-anchor="middle" pointer-events="none" y="0" font-size="10px" fill="#FFFFFF" font-family="sans-serif"> JACOV </text><text text-anchor="middle" pointer-events="none" y="10" font-size="10px" fill="#FFFFFF" font-family="sans-serif"> /ROSE…</text></g><g class="node" transform="translate(454.6735381308166,-546.423648697083)"><circle class="outline" cx="0" cy="0" r="25" fill="#FF756E" stroke="#E06760" stroke-width="2px"/><text text-anchor="middle" pointer-events="none" y="-5" font-size="10px" fill="#FFFFFF" font-family="sans-serif"> RAFAEL</text><text text-anchor="middle" pointer-events="none" y="5" font-size="10px" fill="#FFFFFF" font-family="sans-serif"> </text><text text-anchor="middle" pointer-events="none" y="15" font-size="10px" fill="#FFFFFF" font-family="sans-serif"> /GOT…</text></g><g class="node" transform="translate(719.2108401407572,-628.6658535574475)"><circle class="outline" cx="0" cy="0" r="25" fill="#FF756E" stroke="#E06760" stroke-width="2px"/><text text-anchor="middle" pointer-events="none" y="5" font-size="10px" fill="#FFFFFF" font-family="sans-serif"> /UNKN…</text></g><g class="node" transform="translate(823.7128493057179,-572.3861345195264)"><circle class="outline" cx="0" cy="0" r="25" fill="#FF756E" stroke="#E06760" stroke-width="2px"/><text text-anchor="middle" pointer-events="none" y="0" font-size="10px" fill="#FFFFFF" font-family="sans-serif"> TAUBA </text><text text-anchor="middle" pointer-events="none" y="10" font-size="10px" fill="#FFFFFF" font-family="sans-serif"> /GOTS…</text></g><g class="node" transform="translate(630.9549648489093,-548.3254770492229)"><circle class="outline" cx="0" cy="0" r="25" fill="#FF756E" stroke="#E06760" stroke-width="2px"/><text text-anchor="middle" pointer-events="none" y="5" font-size="10px" fill="#FFFFFF" font-family="sans-serif"> PESSACH</text></g><g class="node" transform="translate(997.6138785308191,-228.31635904307106)"><circle class="outline" cx="0" cy="0" r="25" fill="#FF756E" stroke="#E06760" stroke-width="2px"/><text text-anchor="middle" pointer-events="none" y="0" font-size="10px" fill="#FFFFFF" font-family="sans-serif"> TALI </text><text text-anchor="middle" pointer-events="none" y="10" font-size="10px" fill="#FFFFFF" font-family="sans-serif"> /GLIKM…</text></g><g class="node" transform="translate(873.5493204741653,-565.211489447189)"><circle class="outline" cx="0" cy="0" r="25" fill="#FF756E" stroke="#E06760" stroke-width="2px"/><text text-anchor="middle" pointer-events="none" y="0" font-size="10px" fill="#FFFFFF" font-family="sans-serif"> WOLF </text><text text-anchor="middle" pointer-events="none" y="10" font-size="10px" fill="#FFFFFF" font-family="sans-serif"> /ROSE…</text></g><g class="node" transform="translate(92.57219866669558,-354.23258073185025)"><circle class="outline" cx="0" cy="0" r="25" fill="#FF756E" stroke="#E06760" stroke-width="2px"/><text text-anchor="middle" pointer-events="none" y="-5" font-size="10px" fill="#FFFFFF" font-family="sans-serif"> EDNA </text><text text-anchor="middle" pointer-events="none" y="5" font-size="10px" fill="#FFFFFF" font-family="sans-serif"> /MROUS </text><text text-anchor="middle" pointer-events="none" y="15" font-size="10px" fill="#FFFFFF" font-family="sans-serif"> /</text></g><g class="node" transform="translate(682.0541530708723,-543.707909923517)"><circle class="outline" cx="0" cy="0" r="25" fill="#FF756E" stroke="#E06760" stroke-width="2px"/><text text-anchor="middle" pointer-events="none" y="0" font-size="10px" fill="#FFFFFF" font-family="sans-serif"> SALA </text><text text-anchor="middle" pointer-events="none" y="10" font-size="10px" fill="#FFFFFF" font-family="sans-serif"> /WILCZ…</text></g><g class="node" transform="translate(114.94398598091627,-459.99622691780667)"><circle class="outline" cx="0" cy="0" r="25" fill="#FF756E" stroke="#E06760" stroke-width="2px"/><text text-anchor="middle" pointer-events="none" y="-5" font-size="10px" fill="#FFFFFF" font-family="sans-serif"> VIKTOR</text><text text-anchor="middle" pointer-events="none" y="5" font-size="10px" fill="#FFFFFF" font-family="sans-serif">  /MROUS</text><text text-anchor="middle" pointer-events="none" y="15" font-size="10px" fill="#FFFFFF" font-family="sans-serif">  /</text></g></g></svg>